<svg height="512pt" viewBox="0 0 512 512" width="512pt" xmlns="http://www.w3.org/2000/svg"><path d="m42.667969 8.535156h324.265625c18.851562 0 34.132812 15.28125 34.132812 34.132813v426.664062c0 18.851563-15.28125 34.132813-34.132812 34.132813h-324.265625c-18.851563 0-34.132813-15.28125-34.132813-34.132813v-426.664062c0-18.851563 15.28125-34.132813 34.132813-34.132813zm0 0" fill="#cad9fc"/><path d="m42.667969 8.535156h298.664062c18.851563 0 34.132813 15.28125 34.132813 34.132813v426.664062c0 18.851563-15.28125 34.132813-34.132813 34.132813h-298.664062c-18.851563 0-34.132813-15.28125-34.132813-34.132813v-426.664062c0-18.851563 15.28125-34.132813 34.132813-34.132813zm0 0" fill="#e8edfc"/><path d="m329.421875 281.148438 14.660156 14.664062c6.640625 6.675781 6.640625 17.460938 0 24.136719l-24.132812 24.132812c-6.675781 6.640625-17.460938 6.640625-24.136719 0l-14.664062-14.660156zm0 0" fill="#e8edfc"/><path d="m319.949219 344.085938 24.136719-24.136719 30.167968 30.167969-24.136718 24.136718zm0 0" fill="#cad9fc"/><path d="m500.992188 464.726562-36.265626 36.265626c-1.59375 1.597656-3.761718 2.496093-6.015624 2.496093-2.257813 0-4.421876-.898437-6.019532-2.496093l-36.265625-36.265626-12.03125-12.035156-24.148437-24.148437-30.125-30.121094c-6.65625-6.675781-6.65625-17.476563 0-24.148437l19.800781-19.796876 4.351563-4.355468c6.671874-6.65625 17.472656-6.65625 24.148437 0l5.972656 6.058594h.085938l12.03125 12.035156 36.179687 36.179687 12.035156 12.03125v.085938l12.117188 12.03125 12.03125 12.03125v.085937l12.117188 12.03125c1.597656 1.597656 2.496093 3.761719 2.496093 6.019532 0 2.253906-.898437 4.421874-2.496093 6.015624zm0 0" fill="#cad9fc"/><path d="m479.660156 473.257812-27.308594 27.394532-35.925781-35.925782-12.03125-12.035156-24.148437-24.148437-30.125-30.121094c-6.65625-6.675781-6.65625-17.476563 0-24.148437l19.800781-19.796876c2.71875.726563 5.191406 2.171876 7.167969 4.179688l5.972656 6.058594h.085938l36.179687 36.179687 12.03125 12.035157 12.03125 12.03125v.085937l12.117187 12.03125 12.035157 12.03125v.085937l12.117187 12.03125c1.597656 1.59375 2.496094 3.757813 2.496094 6.015626 0 2.257812-.898438 4.421874-2.496094 6.015624zm0 0" fill="#e8edfc"/><path d="m307.882812 307.882812c-56.644531 56.628907-148.46875 56.621094-205.105468-.019531-56.632813-56.636719-56.632813-148.464843 0-205.105469 56.636718-56.636718 148.460937-56.644531 205.105468-.015624 27.320313 27.140624 42.683594 64.058593 42.683594 102.570312 0 38.507812-15.363281 75.429688-42.683594 102.570312zm0 0" fill="#cad9fc"/><path d="m282.28125 307.882812c-24.023438 24.144532-55.832031 38.992188-89.769531 41.898438-74.859375-6.617188-132.261719-69.320312-132.261719-144.46875 0-75.152344 57.402344-137.851562 132.261719-144.46875 56.128906 4.957031 104.300781 41.976562 123.546875 94.933594 19.242187 52.957031 6.074218 112.269531-33.777344 152.105468zm0 0" fill="#e8edfc"/><path d="m316.738281 205.300781c0 61.546875-49.890625 111.4375-111.4375 111.4375-61.542969 0-111.433593-49.890625-111.433593-111.4375 0-61.542969 49.890624-111.433593 111.433593-111.433593 61.546875 0 111.4375 49.890624 111.4375 111.433593zm0 0" fill="#95a5a5"/><path d="m277.675781 277.675781c-39.988281 39.980469-104.8125 39.976563-144.796875-.007812s-39.984375-104.8125 0-144.796875 104.808594-39.988282 144.796875-.007813c12.917969 12.84375 22.117188 28.945313 26.621094 46.59375 9.234375 35.144531-.902344 72.546875-26.621094 98.21875zm0 0" fill="#cad9fc"/><path d="m252.074219 277.675781c-16.046875 16.09375-37.011719 26.367188-59.5625 29.183594-51.214844-6.425781-89.640625-49.972656-89.640625-101.589844 0-51.617187 38.425781-95.164062 89.640625-101.589843 22.550781 2.816406 43.515625 13.089843 59.5625 29.183593 12.917969 12.84375 22.117187 28.945313 26.625 46.59375 9.234375 35.144531-.90625 72.546875-26.625 98.21875zm0 0" fill="#e8edfc"/><path d="m42.667969 503.464844h25.597656c-18.828125-.054688-34.078125-15.304688-34.132813-34.132813v-426.664062c.054688-18.828125 15.304688-34.078125 34.132813-34.132813h-25.597656c-18.828125.054688-34.078125 15.304688-34.132813 34.132813v426.664062c.054688 18.828125 15.304688 34.078125 34.132813 34.132813zm0 0" fill="#fff"/><path d="m17.066406 42.667969v426.664062h-17.066406v-426.664062zm0 0" fill="#fff"/><g fill="#428dff"><path d="m8.535156 119.464844c2.257813-.03125 4.417969-.917969 6.058594-2.472656 3.296875-3.367188 3.296875-8.753907 0-12.117188l-1.28125-1.023438c-.476562-.324218-.992188-.582031-1.535156-.769531-.484375-.246093-1.003906-.417969-1.539063-.511719-.5625-.09375-1.132812-.152343-1.703125-.171874-2.261718.03125-4.425781.917968-6.058594 2.476562-3.222656 3.398438-3.222656 8.71875 0 12.117188.8125.769531 1.769532 1.378906 2.8125 1.792968 1.027344.4375 2.128907.667969 3.246094.679688zm0 0"/><path d="m42.667969 512h324.265625c23.324218-.039062 42.300781-18.792969 42.609375-42.117188l19.015625 19.015626.011718.007812 18.089844 18.089844c6.667969 6.65625 17.464844 6.65625 24.132813 0l36.203125-36.203125c6.652344-6.667969 6.652344-17.464844 0-24.132813l-18.085938-18.089844-.011718-.019531-.023438-.015625-79.273438-79.28125v-306.585937c-.03125-23.554688-19.117187-42.6406252-42.667968-42.667969h-324.265625c-23.554688.0273438-42.6406252 19.113281-42.667969 42.667969v34.132812c0 4.710938 3.820312 8.53125 8.535156 8.53125 4.710938 0 8.53125-3.820312 8.53125-8.53125v-34.132812c.015625-14.132813 11.46875-25.585938 25.601563-25.601563h324.265625c14.132812.015625 25.585937 11.46875 25.601562 25.601563v294.785156c-5.75-1.433594-11.816406-.832031-17.171875 1.707031l-20.324219-20.320312c4.671876-9.753906 2.703126-21.390625-4.921874-29.058594l-10.324219-10.328125c33.046875-59.882813 22.492187-134.410156-25.882813-182.761719-4.789062-4.722656-9.882812-9.125-15.242187-13.183594v-32.308593c0-4.710938-3.820313-8.53125-8.535157-8.53125-4.710937 0-8.53125 3.820312-8.53125 8.53125v20.898437c-5.503906-3.21875-11.203124-6.082031-17.066406-8.582031v-12.316406c0-4.710938-3.824218-8.53125-8.535156-8.53125s-8.535156 3.820312-8.535156 8.53125v6.441406c-5.609375-1.570313-11.308594-2.824219-17.066406-3.742187v-2.699219c0-4.710938-3.820313-8.53125-8.53125-8.53125-4.714844 0-8.535157 3.820312-8.535157 8.53125v.890625c-2.675781-.136719-5.332031-.390625-8.03125-.390625-3.035156 0-6.027343.265625-9.035156.441406v-.941406c0-4.710938-3.820313-8.53125-8.53125-8.53125-4.714844 0-8.535156 3.820312-8.535156 8.53125v2.847656c-5.757813.953125-11.457031 2.238281-17.066407 3.84375v-6.691406c0-4.710938-3.820312-8.53125-8.53125-8.53125-4.714843 0-8.535156 3.820312-8.535156 8.53125v12.789062c-5.867187 2.542969-11.566406 5.449219-17.066406 8.710938v-21.5c0-4.710938-3.820312-8.53125-8.535156-8.53125-4.710938 0-8.53125 3.820312-8.53125 8.53125v33.054687c-4.996094 3.851563-9.75 8.007813-14.242188 12.4375-54.125 54.089844-60.179687 139.765625-14.199218 200.929688 45.980468 61.160156 129.96875 79.144531 196.964843 42.175781l10.324219 10.324219c7.628906 7.699218 19.320312 9.679687 29.058594 4.921875l20.324218 20.328125c-4.667968 9.753906-2.699218 21.390625 4.921876 29.058594l48.449218 48.441406v16.460937c-.015625 14.132813-11.46875 25.585938-25.601562 25.601563h-324.265625c-14.132813-.015625-25.585938-11.46875-25.601563-25.601563v-324.265625c0-4.710937-3.820312-8.53125-8.53125-8.53125-4.714844 0-8.535156 3.820313-8.535156 8.53125v324.265625c.0273438 23.554688 19.113281 42.640625 42.667969 42.667969zm343.652343-158.347656c2.265626 0 4.4375.894531 6.039063 2.496094l6.035156 6.035156c-2.203125 2.148437-3.078125 5.3125-2.296875 8.285156.785156 2.972656 3.105469 5.292969 6.078125 6.078125 2.972657.78125 6.140625-.09375 8.285157-2.296875l12.066406 12.066406c-2.210938 2.144532-3.09375 5.316406-2.3125 8.292969.785156 2.980469 3.109375 5.304687 6.089844 6.085937 2.976562.78125 6.144531-.101562 8.289062-2.3125l.007812-.003906 12.066407 12.074219-.003907.003906c-2.21875 2.144531-3.109374 5.316407-2.328124 8.300781.78125 2.984376 3.109374 5.3125 6.09375 6.09375 2.984374.78125 6.15625-.109374 8.300781-2.328124l.003906-.003907 12.070313 12.066407-.007813.011718c-3.332031 3.332032-3.332031 8.738282.003906 12.070313 3.332031 3.332031 8.738281 3.328125 12.070313-.003907l.003906-.007812 12.066406 12.0625-36.210937 36.214844-12.070313-12.070313 12.070313-12.066406c2.210937-2.144531 3.09375-5.3125 2.3125-8.292969-.785157-2.976562-3.109375-5.304687-6.089844-6.085937-2.976563-.78125-6.144531.101562-8.289063 2.3125l-12.070312 12.066406-12.070312-12.066406 12.066406-12.066407c3.261718-3.34375 3.226562-8.691406-.074219-11.992187s-8.648437-3.335937-11.992187-.074219l-12.066407 12.066406-12.070312-12.070312 12.070312-12.070312c2.210938-2.144532 3.09375-5.3125 2.3125-8.289063-.78125-2.980469-3.109375-5.304687-6.085937-6.089844-2.980469-.78125-6.148438.101563-8.292969 2.3125l-12.070313 12.070313-12.066406-12.070313 12.066406-12.070312c3.246094-3.347657 3.207032-8.679688-.089843-11.976563s-8.628907-3.335937-11.976563-.089844l-12.066406 12.070313-6.035156-6.03125c-3.328125-3.335937-3.328125-8.734375-.003906-12.070313l24.140624-24.140624c1.597657-1.597657 3.769532-2.496094 6.03125-2.496094zm-277.5625-51.804688c-46.058593-46.0625-53.164062-118.242187-16.976562-172.398437 36.191406-54.160157 105.597656-75.210938 165.773438-50.285157 60.179687 24.929688 94.367187 88.894532 81.65625 152.78125-12.707032 63.882813-68.773438 109.894532-133.910157 109.890626-36.230469.097656-70.992187-14.300782-96.542969-39.988282zm193.089844 36.203125-7.640625-7.640625c14.113281-9.832031 26.371094-22.089844 36.203125-36.203125l7.640625 7.640625c3.324219 3.335938 3.324219 8.734375 0 12.070313l-24.132812 24.132812c-3.339844 3.320313-8.734375 3.320313-12.070313 0zm42.238282-6.035156 18.105468 18.101563-12.070312 12.070312-18.101563-18.105469zm0 0"/><path d="m283.742188 126.863281c-37.429688-37.503906-96.140626-43.335937-140.21875-13.933593-44.074219 29.40625-61.238282 85.855468-40.984376 134.816406 20.253907 48.960937 72.277344 76.792968 124.246094 66.46875 51.96875-10.324219 89.402344-55.929688 89.402344-108.914063.09375-29.429687-11.589844-57.675781-32.445312-78.4375zm-12.066407 144.808594c-31.671875 31.75-81.363281 36.695313-118.675781 11.816406-37.308594-24.882812-51.839844-72.65625-34.703125-114.097656 17.132813-41.441406 61.164063-65.003906 105.152344-56.269531 43.984375 8.734375 75.671875 47.332031 75.671875 92.175781.082031 24.90625-9.800782 48.804687-27.445313 66.378906zm0 0"/><path d="m119.464844 418.132812c4.714844 0 8.535156-3.820312 8.535156-8.53125v-34.136718c0-4.710938-3.820312-8.53125-8.535156-8.53125-4.710938 0-8.53125 3.820312-8.53125 8.53125v34.136718c0 4.710938 3.820312 8.53125 8.53125 8.53125zm0 0"/><path d="m204.800781 418.132812c4.710938 0 8.53125-3.820312 8.53125-8.53125v-34.136718c0-4.710938-3.820312-8.53125-8.53125-8.53125-4.714843 0-8.535156 3.820312-8.535156 8.53125v34.136718c0 4.710938 3.820313 8.53125 8.535156 8.53125zm0 0"/><path d="m290.132812 418.132812c4.714844 0 8.535157-3.820312 8.535157-8.53125v-34.136718c0-4.710938-3.820313-8.53125-8.535157-8.53125-4.710937 0-8.53125 3.820312-8.53125 8.53125v34.136718c0 4.710938 3.820313 8.53125 8.53125 8.53125zm0 0"/><path d="m76.800781 418.132812c14.136719 0 25.597657-11.460937 25.597657-25.597656 0-14.140625-11.460938-25.601562-25.597657-25.601562-14.140625 0-25.601562 11.460937-25.601562 25.601562.015625 14.128906 11.46875 25.582032 25.601562 25.597656zm0-34.132812c4.710938 0 8.53125 3.820312 8.53125 8.535156 0 4.710938-3.820312 8.53125-8.53125 8.53125-4.714843 0-8.535156-3.820312-8.535156-8.53125.007813-4.710937 3.824219-8.527344 8.535156-8.535156zm0 0"/><path d="m76.800781 93.867188c14.136719 0 25.597657-11.460938 25.597657-25.601563 0-14.136719-11.460938-25.597656-25.597657-25.597656-14.140625 0-25.601562 11.460937-25.601562 25.597656.015625 14.132813 11.46875 25.585937 25.601562 25.601563zm0-34.132813c4.710938 0 8.53125 3.820313 8.53125 8.53125 0 4.714844-3.820312 8.535156-8.53125 8.535156-4.714843 0-8.535156-3.820312-8.535156-8.535156.007813-4.710937 3.824219-8.527344 8.535156-8.53125zm0 0"/><path d="m332.800781 93.867188c14.136719 0 25.597657-11.460938 25.597657-25.601563 0-14.136719-11.460938-25.597656-25.597657-25.597656-14.140625 0-25.601562 11.460937-25.601562 25.597656.015625 14.132813 11.46875 25.585937 25.601562 25.601563zm0-34.132813c4.710938 0 8.53125 3.820313 8.53125 8.53125 0 4.714844-3.820312 8.535156-8.53125 8.535156-4.714843 0-8.535156-3.820312-8.535156-8.535156.007813-4.710937 3.824219-8.527344 8.535156-8.53125zm0 0"/><path d="m162.132812 418.132812c14.140626 0 25.601563-11.460937 25.601563-25.597656 0-14.140625-11.460937-25.601562-25.601563-25.601562-14.136718 0-25.597656 11.460937-25.597656 25.601562.015625 14.128906 11.464844 25.582032 25.597656 25.597656zm0-34.132812c4.714844 0 8.535157 3.820312 8.535157 8.535156 0 4.710938-3.820313 8.53125-8.535157 8.53125-4.710937 0-8.53125-3.820312-8.53125-8.53125.003907-4.710937 3.820313-8.527344 8.53125-8.535156zm0 0"/><path d="m247.464844 418.132812c14.140625 0 25.601562-11.460937 25.601562-25.597656 0-14.140625-11.460937-25.601562-25.601562-25.601562-14.136719 0-25.597656 11.460937-25.597656 25.601562.015624 14.128906 11.46875 25.582032 25.597656 25.597656zm0-34.132812c4.714844 0 8.535156 3.820312 8.535156 8.535156 0 4.710938-3.820312 8.53125-8.535156 8.53125-4.710938 0-8.53125-3.820312-8.53125-8.53125.003906-4.710937 3.824218-8.527344 8.53125-8.535156zm0 0"/><path d="m204.800781 153.601562c-4.714843 0-8.535156 3.820313-8.535156 8.53125v34.132813c0 4.714844 3.820313 8.535156 8.535156 8.535156 4.710938 0 8.53125-3.820312 8.53125-8.535156v-34.132813c0-4.710937-3.820312-8.53125-8.53125-8.53125zm0 0"/><path d="m162.132812 153.601562c-14.136718 0-25.597656 11.460938-25.597656 25.597657 0 14.140625 11.460938 25.601562 25.597656 25.601562 14.140626 0 25.601563-11.460937 25.601563-25.601562-.015625-14.132813-11.46875-25.582031-25.601563-25.597657zm0 34.132813c-4.710937 0-8.53125-3.820313-8.53125-8.535156 0-4.710938 3.820313-8.53125 8.53125-8.53125 4.714844 0 8.535157 3.820312 8.535157 8.53125-.007813 4.710937-3.824219 8.527343-8.535157 8.535156zm0 0"/><path d="m247.464844 204.800781c14.140625 0 25.601562-11.460937 25.601562-25.601562 0-14.136719-11.460937-25.597657-25.601562-25.597657-14.136719 0-25.597656 11.460938-25.597656 25.597657.015624 14.132812 11.46875 25.585937 25.597656 25.601562zm0-34.132812c4.714844 0 8.535156 3.820312 8.535156 8.53125 0 4.714843-3.820312 8.535156-8.535156 8.535156-4.710938 0-8.53125-3.820313-8.53125-8.535156.003906-4.710938 3.824218-8.527344 8.53125-8.53125zm0 0"/><path d="m204.800781 213.332031c-4.714843 0-8.535156 3.820313-8.535156 8.535157v34.132812c0 4.710938 3.820313 8.535156 8.535156 8.535156 4.710938 0 8.53125-3.824218 8.53125-8.535156v-34.132812c0-4.714844-3.820312-8.535157-8.53125-8.535157zm0 0"/><path d="m162.132812 213.332031c-14.136718 0-25.597656 11.460938-25.597656 25.601563 0 14.136718 11.460938 25.601562 25.597656 25.601562 14.140626 0 25.601563-11.464844 25.601563-25.601562-.015625-14.132813-11.46875-25.585938-25.601563-25.601563zm0 34.132813c-4.710937 0-8.53125-3.820313-8.53125-8.53125 0-4.714844 3.820313-8.535156 8.53125-8.535156 4.714844 0 8.535157 3.820312 8.535157 8.535156-.007813 4.710937-3.824219 8.527344-8.535157 8.53125zm0 0"/><path d="m247.464844 213.332031c-14.136719 0-25.597656 11.460938-25.597656 25.601563 0 14.136718 11.460937 25.601562 25.597656 25.601562 14.140625 0 25.601562-11.464844 25.601562-25.601562-.015625-14.132813-11.46875-25.585938-25.601562-25.601563zm0 34.132813c-4.710938 0-8.53125-3.820313-8.53125-8.53125 0-4.714844 3.820312-8.535156 8.53125-8.535156 4.714844 0 8.535156 3.820312 8.535156 8.535156-.007812 4.710937-3.824219 8.527344-8.535156 8.53125zm0 0"/><path d="m110.933594 477.867188c0 4.710937 3.820312 8.53125 8.53125 8.53125 4.714844 0 8.535156-3.820313 8.535156-8.53125v-34.132813c0-4.714844-3.820312-8.535156-8.535156-8.535156-4.710938 0-8.53125 3.820312-8.53125 8.535156zm0 0"/><path d="m196.265625 477.867188c0 4.710937 3.820313 8.53125 8.535156 8.53125 4.710938 0 8.53125-3.820313 8.53125-8.53125v-34.132813c0-4.714844-3.820312-8.535156-8.53125-8.535156-4.714843 0-8.535156 3.820312-8.535156 8.535156zm0 0"/><path d="m281.601562 477.867188c0 4.710937 3.820313 8.53125 8.53125 8.53125 4.714844 0 8.535157-3.820313 8.535157-8.53125v-34.132813c0-4.714844-3.820313-8.535156-8.535157-8.535156-4.710937 0-8.53125 3.820312-8.53125 8.535156zm0 0"/><path d="m76.800781 486.398438c14.136719 0 25.597657-11.460938 25.597657-25.597657 0-14.140625-11.460938-25.601562-25.597657-25.601562-14.140625 0-25.601562 11.460937-25.601562 25.601562.015625 14.132813 11.46875 25.582031 25.601562 25.597657zm0-34.132813c4.710938 0 8.53125 3.820313 8.53125 8.535156 0 4.710938-3.820312 8.53125-8.53125 8.53125-4.714843 0-8.535156-3.820312-8.535156-8.53125.007813-4.710937 3.824219-8.527343 8.535156-8.535156zm0 0"/><path d="m162.132812 486.398438c14.140626 0 25.601563-11.460938 25.601563-25.597657 0-14.140625-11.460937-25.601562-25.601563-25.601562-14.136718 0-25.597656 11.460937-25.597656 25.601562.015625 14.132813 11.464844 25.582031 25.597656 25.597657zm0-34.132813c4.714844 0 8.535157 3.820313 8.535157 8.535156 0 4.710938-3.820313 8.53125-8.535157 8.53125-4.710937 0-8.53125-3.820312-8.53125-8.53125.003907-4.710937 3.820313-8.527343 8.53125-8.535156zm0 0"/><path d="m247.464844 486.398438c14.140625 0 25.601562-11.460938 25.601562-25.597657 0-14.140625-11.460937-25.601562-25.601562-25.601562-14.136719 0-25.597656 11.460937-25.597656 25.601562.015624 14.132813 11.46875 25.582031 25.597656 25.597657zm0-34.132813c4.714844 0 8.535156 3.820313 8.535156 8.535156 0 4.710938-3.820312 8.53125-8.535156 8.53125-4.710938 0-8.53125-3.820312-8.53125-8.53125.003906-4.710937 3.824218-8.527343 8.53125-8.535156zm0 0"/><path d="m358.398438 460.800781c0-14.140625-11.460938-25.601562-25.597657-25.601562-14.140625 0-25.601562 11.460937-25.601562 25.601562 0 14.136719 11.460937 25.597657 25.601562 25.597657 14.132813-.015626 25.582031-11.464844 25.597657-25.597657zm-34.132813 0c0-4.714843 3.820313-8.535156 8.535156-8.535156 4.710938 0 8.53125 3.820313 8.53125 8.535156 0 4.710938-3.820312 8.53125-8.53125 8.53125-4.710937-.003906-8.527343-3.820312-8.535156-8.53125zm0 0"/></g></svg>